{
  "accessors": [
    {
      "bufferView": 2,
      "componentType": 5126,
      "count": 33008,
      "max": [
        6.715254306793213,
        11.0645751953125,
        18.912063598632813
      ],
      "min": [
        -10.33211898803711,
        -9.47360897064209,
        -0.005958080291748047
      ],
      "type": "VEC3"
    },
    {
      "bufferView": 2,
      "byteOffset": 396096,
      "componentType": 5126,
      "count": 33008,
      "max": [
        0.9999874830245972,
        0.9999108910560608,
        0.9950464963912964
      ],
      "min": [
        -0.9996200203895569,
        -0.9999836087226868,
        -0.999790370464325
      ],
      "type": "VEC3"
    },
    {
      "bufferView": 1,
      "componentType": 5126,
      "count": 33008,
      "max": [
        0.9980459809303284,
        0.9589840173721313
      ],
      "min": [
        0.0019529999699443579,
        0.0019529999699443579
      ],
      "type": "VEC2"
    },
    {
      "bufferView": 0,
      "componentType": 5125,
      "count": 180582,
      "type": "SCALAR"
    }
  ],
  "asset": {
    "extras": {
      "author": "Reverse Imagineering (https://sketchfab.com/wesleymjames)",
      "license": "CC-BY-4.0 (http://creativecommons.org/licenses/by/4.0/)",
      "source": "https://sketchfab.com/3d-models/vesta-88593b02c3d1485fbe4185ff62c064d2",
      "title": "Vesta"
    },
    "generator": "Sketchfab-12.67.0",
    "version": "2.0"
  },
  "bufferViews": [
    {
      "buffer": 0,
      "byteLength": 722328,
      "name": "floatBufferViews",
      "target": 34963
    },
    {
      "buffer": 0,
      "byteLength": 264064,
      "byteOffset": 722328,
      "byteStride": 8,
      "name": "floatBufferViews",
      "target": 34962
    },
    {
      "buffer": 0,
      "byteLength": 792192,
      "byteOffset": 986392,
      "byteStride": 12,
      "name": "floatBufferViews",
      "target": 34962
    }
  ],
  "buffers": [
    {
      "byteLength": 1778584,
      "uri": "scene.bin"
    }
  ],
  "images": [
    {
      "uri": "textures/model_Material_u1_v1_baseColor.jpeg"
    }
  ],
  "materials": [
    {
      "doubleSided": true,
      "name": "model_Material_u1_v1",
      "pbrMetallicRoughness": {
        "baseColorTexture": {
          "index": 0
        },
        "metallicFactor": 0.0
      }
    }
  ],
  "meshes": [
    {
      "name": "Object_0",
      "primitives": [
        {
          "attributes": {
            "NORMAL": 1,
            "POSITION": 0,
            "TEXCOORD_0": 2
          },
          "indices": 3,
          "material": 0,
          "mode": 4
        }
      ]
    }
  ],
  "nodes": [
    {
      "children": [
        1
      ],
      "matrix": [
        0.0,
        0.8602376580238343,
        -0.5098932385444639,
        0.0,
        -0.9999871253967285,
        0.0025898483581840983,
        0.004369316622614861,
        0.0,
        0.005079197231680155,
        0.5098866820335386,
        0.8602265715599061,
        0.0,
        -1.0609583854675293,
        6.186679363250734,
        -9.852832794189451,
        1.0
      ],
      "name": "Sketchfab_model"
    },
    {
      "children": [
        2
      ],
      "name": "model.obj.cleaner.materialmerger.gles"
    },
    {
      "mesh": 0,
      "name": "Object_2"
    }
  ],
  "samplers": [
    {
      "magFilter": 9729,
      "minFilter": 9987,
      "wrapS": 10497,
      "wrapT": 10497
    }
  ],
  "scene": 0,
  "scenes": [
    {
      "name": "Sketchfab_Scene",
      "nodes": [
        0
      ]
    }
  ],
  "textures": [
    {
      "sampler": 0,
      "source": 0
    }
  ]
}
